<?xml version="1.0" encoding="UTF-8"?>
<svg id="Layer_1" xmlns="http://www.w3.org/2000/svg" xmlns:xlink="http://www.w3.org/1999/xlink" version="1.1" viewBox="0 0 3968 911">
  <!-- Generator: Adobe Illustrator 30.0.0, SVG Export Plug-In . SVG Version: 2.1.1 Build 123)  -->
  <defs>
    <style>
      .st0, .st1, .st2 {
        fill: none;
      }

      .st1 {
        stroke: #ecf4df;
      }

      .st1, .st2 {
        stroke-miterlimit: 10;
        stroke-width: 3px;
      }

      .st2 {
        stroke: #d4effc;
      }

      .st3 {
        fill: #e6f0f4;
      }

      .st4 {
        fill: #f26b39;
      }

      .st5 {
        clip-path: url(#clippath);
      }
    </style>
    <clipPath id="clippath">
      <rect class="st0" width="3968" height="911"/>
    </clipPath>
  </defs>
  <g class="st5">
    <polygon class="st4" points="3392.2 911 -260.8 911 108.6 0 3761.7 0 3392.2 911"/>
    <polygon class="st4" points="3472.1 911 -181 911 188.4 0 3841.5 0 3472.1 911"/>
    <polygon class="st3" points="3437.9 911 -215.2 911 154.2 0 3807.3 0 3437.9 911"/>
    <g>
      <path class="st2" d="M4162.5,574.7c-.1-3.3-1.7-6.9-10.9-10.1-20-6.8-74.9-12.9-108.5-17.5h-.6c-71.4-9.2-143.8-20.9-214-33.6-73.3-13.1-138.9-28-211.2-41.1-205.8-37-433.6-184.9-642.5-207.9-183.8-20.8-385.6,68.2-552.4,27.5-62.5-14.6-136.8-17.9-204.3-21.8-72.9-4.4-124.6-1.4-167.3,8.7-54.3,11.8-120.7,25.5-217,26.1-107.9-.2-242.6-20.3-341.9-46.3-57-15-108.5-33.5-167.9-47.5-69.8-16.2-151.1-25.2-222.9-38.3-38.4-6.8-78.2-15.1-115.6-24.6-68.4-17.3-136.4-40.1-194.1-60.7-52.9-18.3-99.5-36.1-167.5-47.3-90.6-14.8-197.8-28.1-289.7-31.9C228.8,3.3,128.5,6.5,21.7-2.7-12.5-5.6-54.1-10.5-85.4-13.6"/>
      <path class="st1" d="M4641.6,623.6c-.2-3.3-2.2-7-13.5-10.4-24.3-7.3-90.7-14.8-131.3-20.3h-.8c-86.4-11-174.1-24.7-259.1-39.2-88.8-15-168.4-31.6-255.9-46.5-249.4-42.3-527.9-196.4-780.7-224.9-222.4-25.5-463.6,58.6-666,13.5-75.8-16.2-165.6-21.5-247.2-27.1-88-6.3-150.4-4.6-201.7,4.5-65.2,10.4-145,22.5-261.2,20.7-130.3-3-293.3-26.5-413.8-55.1-69.2-16.5-131.8-36.4-203.8-51.9-84.6-18-183-29.1-269.9-44.1-46.5-7.8-94.8-17.2-140.1-27.7-83-19.1-165.7-43.7-235.9-65.8C496.4,29.7,439.7,10.7,357.4-2.3,247.7-19.4,117.9-35.5,6.9-41.7c-127.4-7.8-248.5-7.2-377.5-19.1-41.4-3.7-91.7-9.7-129.5-13.6"/>
    </g>
    <g>
      <path class="st2" d="M4749.9,581.1c-.1-3.3-1.7-6.9-10.9-10.1-20-6.8-74.9-12.9-108.5-17.5h-.6c-71.4-9.2-143.8-20.9-214-33.6-73.3-13.1-138.9-28-211.2-41.1-205.8-37-433.6-184.9-642.5-207.9-183.8-20.8-385.6,68.2-552.4,27.5-62.5-14.6-136.8-17.9-204.3-21.8-72.9-4.4-124.6-1.4-167.3,8.7-54.3,11.8-120.7,25.5-217,26.1-107.9-.2-242.6-20.3-341.9-46.3-57-15-108.5-33.5-167.9-47.5-69.8-16.2-151.1-25.2-222.9-38.3-38.4-6.8-78.2-15.1-115.6-24.6-68.4-17.3-136.4-40.1-194.1-60.7-52.9-18.3-99.5-36.1-167.5-47.3-90.6-14.8-197.8-28.1-289.7-31.9-105.5-5.1-205.8-1.9-312.6-11.2-34.2-2.9-75.8-7.7-107.1-10.8"/>
      <path class="st1" d="M5228.9,630c-.2-3.3-2.2-7-13.5-10.4-24.3-7.3-90.7-14.8-131.3-20.3h-.8c-86.4-11-174.1-24.7-259.1-39.2-88.8-15-168.4-31.6-255.9-46.5-249.4-42.3-527.9-196.4-780.7-224.9-222.4-25.5-463.6,58.6-666,13.5-75.8-16.2-165.6-21.5-247.2-27.1-88-6.3-150.4-4.6-201.7,4.5-65.2,10.4-145,22.5-261.2,20.7-130.3-3-293.3-26.5-413.8-55.1-69.2-16.5-131.8-36.4-203.8-51.9-84.6-18-183-29.1-269.9-44.1-46.5-7.8-94.8-17.2-140.1-27.7-83-19.1-165.7-43.7-235.9-65.8-64.3-19.7-121-38.7-203.3-51.7-109.7-17.1-239.4-33.2-350.5-39.4-127.4-7.8-248.5-7.2-377.5-19.1-41.4-3.7-91.7-9.7-129.5-13.6"/>
    </g>
  </g>
</svg>