<?xml version="1.0" encoding="UTF-8"?>
<svg id="Layer_1" data-name="Layer 1" xmlns="http://www.w3.org/2000/svg" viewBox="0 0 360 85.61">
  <defs>
    <style>
      .cls-1 {
        fill: #fff;
      }
    </style>
  </defs>
  <path class="cls-1" d="M85.44,85.59c-7.33,0-12.47-3.06-12.47-12.84V.02h16.14v66.62c0,4.89,1.22,6.11,6.11,6.11h31.29v12.84h-41.07Z"/>
  <path class="cls-1" d="M133.84,85.59V.02h16.14v85.57h-16.14Z"/>
  <path class="cls-1" d="M206.86,85.59l-15.52-30.8-15.52,30.8h-19.19l24.33-43.39L157.6.02h19.19l14.55,29.58L205.89.02h19.19l-23.35,42.17,24.33,43.39h-19.19Z"/>
  <path class="cls-1" d="M284.56,85.59h-41.44c-7.33,0-12.47-3.06-12.47-12.84V12.86C230.65,3.08,235.78.02,243.12.02h40.95v12.83h-31.17c-3.38,0-6.11,2.74-6.11,6.11v16.5h36.06v12.83h-36.06v18.34c0,3.38,2.74,6.11,6.11,6.11h31.66v12.84Z"/>
  <path class="cls-1" d="M44.68,55.27h1.22c13.08,0,18.89-10.64,18.89-28.24S59.29.02,43.39.02H12.47C5.13.02,0,3.08,0,12.86v72.73h16.14V18.97c0-3.38,2.74-6.11,6.11-6.11h13.81c10.27,0,12.1,4.4,12.1,14.18s-1.34,15.77-10.27,15.77H7.03c-2.47,0-3.94,2.77-2.54,4.82l3.71,5.42c.96,1.4,2.54,2.23,4.23,2.23h32.24Z"/>
  <path class="cls-1" d="M338.57,55.88v-.61h1.22c13.08,0,18.5-10.64,18.5-28.24S352.79.02,336.9.02h-30.93c-7.33,0-12.47,3.06-12.47,12.83v72.73h16.14V18.97c0-3.38,2.74-6.11,6.11-6.11h13.81c10.27,0,12.1,4.4,12.1,14.18s-1.34,15.77-10.27,15.77h-14.06c-2.47,0-3.94,2.77-2.54,4.82l7.18,9.24c.2.33.42.65.64.98l5.38,7.83,14.15,19.92h17.85l-21.43-29.7Z"/>
</svg>