<svg xmlns="http://www.w3.org/2000/svg" width="145.621" height="50" viewBox="0 0 145.621 50">
  <g id="Group_41" data-name="Group 41" transform="translate(-287.877 -15)">
    <g id="Group_87" data-name="Group 87" transform="translate(287.877 15)">
      <g id="Group_74" data-name="Group 74" transform="translate(0 12.524)">
        <path id="Path_121" data-name="Path 121" d="M617.422,267.553a2.2,2.2,0,0,1,.318-1.137l-7.049-4.116a4.559,4.559,0,0,0-.591,2.251V285.04a4.517,4.517,0,0,0,2.251,3.911l5.094,2.979V267.553Z" transform="translate(-610.1 -262.3)" fill="#bfbfbf"/>
        <path id="Path_122" data-name="Path 122" d="M680.808,380.111l-4.616-2.706a1.057,1.057,0,0,0-1.592.91v6.708l5.071,2.956a4.542,4.542,0,0,0,2.138.614l.046-8.164A2.162,2.162,0,0,1,680.808,380.111Z" transform="translate(-659.933 -351.117)" fill="#bfbfbf"/>
      </g>
      <path id="Path_123" data-name="Path 123" d="M688.212,294.457l-5.731,3.3a1.478,1.478,0,0,1-1.5,0l-5.73-3.32a1.5,1.5,0,0,1-.75-1.319l.023-6.617a1.482,1.482,0,0,1,.75-1.3L681,281.9a1.478,1.478,0,0,1,1.5,0l5.73,3.32a1.5,1.5,0,0,1,.75,1.319l-.023,6.617A1.489,1.489,0,0,1,688.212,294.457Z" transform="translate(-659.855 -264.764)" fill="#81d6d2"/>
      <path id="Path_124" data-name="Path 124" d="M682.581,289.818l7.072-4a1.425,1.425,0,0,0-.568-.591l-5.731-3.32a1.478,1.478,0,0,0-1.5,0l-5.731,3.275a1.287,1.287,0,0,0-.523.523Z" transform="translate(-660.705 -264.764)" fill="#7f7f7f"/>
      <path id="Path_125" data-name="Path 125" d="M681.654,303.416l-7-4.116a1.55,1.55,0,0,0-.227.8l-.023,6.617a1.547,1.547,0,0,0,.75,1.319l5.73,3.32a1.576,1.576,0,0,0,.7.2Z" transform="translate(-659.778 -278.362)" fill="#bfbfbf"/>
      <path id="Path_126" data-name="Path 126" d="M706.1,311.921a1.438,1.438,0,0,0,.8-.2l5.731-3.3a1.489,1.489,0,0,0,.75-1.3l.023-6.617a1.477,1.477,0,0,0-.182-.7l-7.072,4Z" transform="translate(-684.269 -278.748)" fill="#404040"/>
      <path id="Path_127" data-name="Path 127" d="M620.468,223.046l12.439-7.3a2.3,2.3,0,0,1,2.3,0l12.393,7.277a2.152,2.152,0,0,1,.91,1l7.072-4.048a4.636,4.636,0,0,0-1.728-1.842l-17.464-10.279a4.454,4.454,0,0,0-4.571,0l-17.555,10.21a4.473,4.473,0,0,0-1.66,1.66l7.049,4.116A2.492,2.492,0,0,1,620.468,223.046Z" transform="translate(-612.031 -207.225)" fill="#7f7f7f"/>
      <path id="Path_131" data-name="Path 131" d="M728.549,265.469a4.629,4.629,0,0,0-.5-2.069l-7.072,4.048a2.225,2.225,0,0,1,.2.932l.045,14.576a2.272,2.272,0,0,1-1.114,1.956l-12.439,7.231a2.185,2.185,0,0,1-1.228.3L706.4,300.6a4.539,4.539,0,0,0,2.41-.614L726.32,289.8a4.554,4.554,0,0,0,2.251-3.934Z" transform="translate(-684.501 -250.626)" fill="#404040"/>
    </g>
    <g id="Group_88" data-name="Group 88" transform="translate(339.496 28.924)">
      <path id="Path_133" data-name="Path 133" d="M931.156,285.743c-1.922,0-3.256-.8-3.256-3.354V263.4h4.218v17.4c0,1.275.314,1.589,1.589,1.589h8.18v3.354Z" transform="translate(-908.813 -263.38)" fill="#fff"/>
      <path id="Path_134" data-name="Path 134" d="M1008.9,285.743V263.4h4.218v22.343Z" transform="translate(-973.924 -263.38)" fill="#fff"/>
      <path id="Path_135" data-name="Path 135" d="M1052.323,285.743l-4.061-8.043-4.061,8.043h-5l6.356-11.338-6.1-11h5l3.806,7.729,3.806-7.729h5l-6.1,11,6.356,11.338Z" transform="translate(-998.28 -263.38)" fill="#fff"/>
      <path id="Path_136" data-name="Path 136" d="M1151.785,285.743h-10.828c-1.922,0-3.256-.8-3.256-3.354V266.754c0-2.55,1.334-3.354,3.256-3.354h10.691v3.354h-8.141a1.582,1.582,0,0,0-1.589,1.589v4.316h9.416v3.354h-9.416V280.8a1.582,1.582,0,0,0,1.589,1.589h8.259v3.354Z" transform="translate(-1077.458 -263.38)" fill="#fff"/>
      <path id="Path_137" data-name="Path 137" d="M842.291,277.738h.314c3.413,0,4.924-2.786,4.924-7.376,0-4.473-1.432-7.062-5.591-7.062h-8.082c-1.922,0-3.256.8-3.256,3.354v18.989h4.218v-17.4a1.582,1.582,0,0,1,1.589-1.589h3.609c2.687,0,3.158,1.157,3.158,3.708s-.353,4.119-2.687,4.119h-8.043a.807.807,0,0,0-.667,1.255l.961,1.412a1.334,1.334,0,0,0,1.1.589Z" transform="translate(-830.6 -263.3)" fill="#fff"/>
      <path id="Path_138" data-name="Path 138" d="M1233.072,277.895v-.157h.314c3.413,0,4.924-2.786,4.924-7.376,0-4.473-1.432-7.062-5.591-7.062h-8.062c-1.922,0-3.256.8-3.256,3.354v18.989h4.218v-17.4a1.582,1.582,0,0,1,1.589-1.589h3.609c2.688,0,3.158,1.157,3.158,3.708s-.353,4.119-2.687,4.119h-3.766a.807.807,0,0,0-.667,1.255l1.648,2.413a1.8,1.8,0,0,1,.157.255l1.412,2.04,3.57,5.2h5.1Z" transform="translate(-1144.739 -263.3)" fill="#fff"/>
    </g>
  </g>
</svg>
