<?xml version="1.0" encoding="utf-8"?>
<!-- Generator: Adobe Illustrator 27.7.0, SVG Export Plug-In . SVG Version: 6.00 Build 0)  -->
<svg version="1.1" id="Layer_1" xmlns="http://www.w3.org/2000/svg" xmlns:xlink="http://www.w3.org/1999/xlink" x="0px" y="0px"
	 viewBox="0 0 661.8 236" style="enable-background:new 0 0 661.8 236;" xml:space="preserve">
<style type="text/css">
	.st0{fill:#7B5CA1;}
	.st1{fill:#81D6D2;}
	.st2{fill:#593189;}
	.st3{fill:#3D1E69;}
	.st4{fill:#FFFFFF;}
</style>
<g>
	<path class="st0" d="M34.7,83.9c0-1.9,0.5-3.8,1.5-5.4L2.8,59C1,62.2,0,65.9,0,69.7v96.8c0,7.6,4.1,14.7,10.6,18.5l24.1,14V83.9z"
		/>
	<path class="st0" d="M98.8,196L77,183.2c-3.3-2-7.5,0.4-7.5,4.3v31.6l24,13.9c3.1,1.8,6.6,2.8,10.1,2.9l0.2-38.5
		C102,197.4,100.3,196.9,98.8,196z"/>
</g>
<path class="st1" d="M134.1,140.1L107,155.6c-2.2,1.3-4.9,1.3-7.1,0l-27-15.7c-2.2-1.3-3.6-3.6-3.6-6.2l0.1-31.2
	c0-2.5,1.4-4.9,3.6-6.2L100,80.8c2.2-1.3,4.9-1.3,7.1,0l27,15.7c2.2,1.3,3.6,3.6,3.6,6.2l-0.1,31.2
	C137.7,136.5,136.3,138.8,134.1,140.1z"/>
<path class="st2" d="M103.5,118.2l33.4-18.9c-0.6-1.1-1.5-2.1-2.7-2.8l-27-15.7c-2.2-1.3-4.9-1.3-7.1,0L73,96.4
	c-1,0.6-1.9,1.4-2.5,2.4L103.5,118.2z"/>
<path class="st0" d="M103.5,118.2L70.5,98.8c-0.7,1.1-1.1,2.4-1.1,3.7l-0.1,31.2c0,2.5,1.4,4.9,3.6,6.2l27,15.7
	c1,0.6,2.2,0.9,3.4,0.9L103.5,118.2z"/>
<path class="st3" d="M103.3,156.6c1.3,0,2.6-0.3,3.8-0.9l27.1-15.6c2.2-1.3,3.6-3.6,3.6-6.2l0.1-31.2c0-1.2-0.3-2.4-0.9-3.4
	l-33.4,18.9L103.3,156.6z"/>
<path class="st2" d="M40,74.6l58.7-34.4c3.3-2,7.5-2,10.8,0l58.6,34.3c1.9,1.1,3.4,2.8,4.3,4.8l33.4-19.1c-1.8-3.6-4.6-6.6-8.2-8.7
	L115.1,3C108.5-1,100.2-1,93.5,2.9L10.6,51.2c-3.3,1.9-6,4.6-7.8,7.9l33.3,19.5C37.1,76.9,38.4,75.6,40,74.6z"/>
<path class="st3" d="M208.2,70c0-3.5-0.8-6.8-2.4-9.7l-33.4,19.1c0.6,1.4,1,2.9,1,4.5l0.2,68.8c0,3.8-2,7.4-5.3,9.3L109.6,196
	c-1.8,1-3.8,1.5-5.8,1.4l-0.2,38.5c3.9,0.1,7.9-0.8,11.4-2.9l82.7-48.1c6.6-3.8,10.7-10.9,10.7-18.5L208.2,70z"/>
<g>
	<path class="st4" d="M340.3,171.3c-8.6,0-14.6-3.6-14.6-15V71.1h18.9v78c0,5.7,1.4,7.2,7.2,7.2h36.6v15H340.3z"/>
	<path class="st4" d="M397,171.3V71.1h18.9v100.2H397z"/>
	<path class="st4" d="M482.5,171.3l-18.2-36.1l-18.2,36.1h-22.5l28.5-50.8l-27.3-49.4h22.5l17,34.6l17-34.6h22.5l-27.3,49.4
		l28.5,50.8H482.5z"/>
	<path class="st4" d="M573.5,171.3h-48.5c-8.6,0-14.6-3.6-14.6-15V86.1c0-11.5,6-15,14.6-15h48v15h-36.5c-4,0-7.2,3.2-7.2,7.2v19.3
		h42.2v15h-42.2v21.5c0,4,3.2,7.2,7.2,7.2h37.1V171.3z"/>
	<path class="st4" d="M292.5,135.8h1.4c15.3,0,22.1-12.5,22.1-33.1c0-20-6.4-31.6-25.1-31.6h-36.2c-8.6,0-14.6,3.6-14.6,15v85.2
		h18.9v-78c0-4,3.2-7.2,7.2-7.2h16.2c12,0,14.2,5.2,14.2,16.6c0,11.5-1.6,18.5-12,18.5h-25.8h-10.3c-2.9,0-4.6,3.2-3,5.6l4.3,6.3
		c1.1,1.6,3,2.6,5,2.6H292.5z"/>
	<path class="st4" d="M636.7,136.5v-0.7h1.4c15.3,0,21.7-12.5,21.7-33.1c0-20-6.4-31.6-25.1-31.6h-36.2c-8.6,0-14.6,3.6-14.6,15
		v85.2h18.9v-78c0-4,3.2-7.2,7.2-7.2h16.2c12,0,14.2,5.2,14.2,16.6c0,11.5-1.6,18.5-12,18.5h-4.1h-12.3c-2.9,0-4.6,3.2-3,5.6
		l8.4,10.8c0.2,0.4,0.5,0.8,0.7,1.1l6.3,9.2l16.6,23.3h20.9L636.7,136.5z"/>
</g>
</svg>
